<svg width="28" height="28" viewBox="0 0 28 28" fill="none" xmlns="http://www.w3.org/2000/svg">
<path opacity="0.3" d="M12.7452 10.0178H8.59412V14.6228H12.5371L13.6934 15.7741H16.6882V11.1691H13.9015L12.7452 10.0178Z" fill="#D1453B"/>
<path d="M14.3755 10.0178L13.2192 8.86658H8.59406V7.54265C8.92939 7.33542 9.17221 6.99005 9.17221 6.56409C9.17221 5.9309 8.65188 5.41284 8.01592 5.41284C7.37995 5.41284 6.85962 5.9309 6.85962 6.56409C6.85962 6.99005 7.10244 7.33542 7.43777 7.54265V19.2278H8.59406V15.7741H12.063L13.2192 16.9253H17.8444V10.0178H14.3755ZM16.6881 15.7741H13.6933L12.537 14.6228H8.59406V10.0178H12.7452L13.9015 11.1691H16.6881V15.7741Z" fill="#D1453B"/>
</svg>
